<?xml version="1.0" encoding="utf-8"?>
<!-- Generator: Adobe Illustrator 16.0.4, SVG Export Plug-In . SVG Version: 6.00 Build 0)  -->
<!DOCTYPE svg PUBLIC "-//W3C//DTD SVG 1.1//EN" "http://www.w3.org/Graphics/SVG/1.1/DTD/svg11.dtd">
<svg version="1.1" id="Layer_1" xmlns="http://www.w3.org/2000/svg" xmlns:xlink="http://www.w3.org/1999/xlink" x="0px" y="0px"
	 width="512px" height="512px" viewBox="0 0 512 512" enable-background="new 0 0 512 512" xml:space="preserve">
<path fill-rule="evenodd" clip-rule="evenodd" d="M388.108,67.449c-6.21-11.307-14.736-19.027-25.583-23.163
	c-10.015-3.722-20.318-4.174-30.914-1.357l-0.095-0.011c-13.495,3.558-23.663,12.116-30.502,25.676l-30.601,77.179
	c4.041-0.396,8.328-1.836,12.863-4.325c4.399-2.509,14.901-10.072,31.507-22.696c-3.624,13.502-5.666,23.686-6.128,30.551
	c-0.695,9.605,1.155,16.048,5.555,19.327c6.599,4.917,17.702,4.109,33.305-2.422c7.8-3.246,14.967-7.006,21.501-11.279
	c-42.688,53.792-75.875,96.905-99.56,129.334c-41.188,56.4-81.118,118.395-119.79,185.986c-3.688,2.054-6.91,3.524-9.665,4.415
	l-6.899,17.44c-0.901,2.243-2.461,3.844-4.678,4.803c-2.221,0.96-4.447,0.995-6.68,0.104c-2.229-0.896-3.82-2.454-4.772-4.676
	c-0.959-2.212-0.995-4.429-0.108-6.648l6.893-17.377c-0.168-0.164-0.327-0.33-0.477-0.496c-2.755-3.002-3.722-6.051-2.902-9.143
	c18.297-74.489,31.943-148.656,40.939-222.507c5.044-41.265,10.158-93.78,15.342-157.546c1.638,7.192,4.009,14.408,7.11,21.646
	c6.192,14.557,12.748,22.195,19.668,22.915c4.51,0.524,10.425-2.564,17.744-9.261c6.816-6.336,13.423-14.481,19.821-24.432
	c1.62,14.573,3.639,25.897,6.055,33.979c2.01,6.806,4.41,12.043,7.203,15.712l30.736-77.54c0.09-0.228,0.19-0.467,0.304-0.721
	c9.321-18.594,23.286-30.234,41.891-34.919l-0.093-0.011c14.239-3.775,28.09-3.141,41.546,1.901
	c14.792,5.467,26.387,15.851,34.784,31.15l0.004-0.031c9.838,17.723,10.926,36.153,3.263,55.292
	c-0.896,2.237-2.457,3.839-4.677,4.804c-2.22,0.951-4.445,0.976-6.675,0.074c-2.241-0.898-3.842-2.458-4.805-4.68
	c-0.951-2.217-0.976-4.443-0.074-6.675c5.575-13.962,4.79-27.41-2.36-40.342L388.108,67.449z"/>
</svg>
